# xmcd
#
# Track frame offsets:
#   150
#   25457
#   42335
#   55061
#   69765
#   86806
#   103199
#   118003
#   135529
#   152202
#   169226
#   184106
#   200261
#   210462
#   225134
#   243303
#   258982
#   272893
#
# Disc length: 3846 seconds
#
# Revision: 0
# Processed by: cddbd v1.5.1PL2 Copyright (c) Steve Scherf et al.
# Submitted via: GXTranscoder 2.0.1939
#
DISCID=f60f0412
DTITLE=Кузьмина Н - Чувашские современные
DYEAR=2005
DGENRE=Pop
TTITLE0=Аста ес
TTITLE1=Сака суркунне
TTITLE2=Лайах
TTITLE3=Сан валли
TTITLE4=Эс кайсан
TTITLE5=Манекенщица
TTITLE6=Тин-тин тухса
TTITLE7=Нименте эс ан кала
TTITLE8=Саватап эп ураххине
TTITLE9=Санан машару эп пулаймарам
TTITLE10=Шура кашкар
TTITLE11=Юр перчи
TTITLE12=Килсем
TTITLE13=Савнисем
TTITLE14=Ак салтар сунче
TTITLE15=Керхи сумар
TTITLE16=Сук, укса памас
TTITLE17=Керхи сумар
EXTD=
EXTT0=
EXTT1=
EXTT2=
EXTT3=
EXTT4=
EXTT5=
EXTT6=
EXTT7=
EXTT8=
EXTT9=
EXTT10=
EXTT11=
EXTT12=
EXTT13=
EXTT14=
EXTT15=
EXTT16=
EXTT17=
PLAYORDER=
